<svg xmlns="http://www.w3.org/2000/svg" xmlns:xlink="http://www.w3.org/1999/xlink" width="76" zoomAndPan="magnify" viewBox="0 0 56.879997 56.999997" height="76" preserveAspectRatio="xMidYMid meet" version="1.0"><defs><g/><clipPath id="b9a01dbc4a"><path d="M 0 0.0585938 L 56.761719 0.0585938 L 56.761719 56.9375 L 0 56.9375 Z M 0 0.0585938 " clip-rule="nonzero"/></clipPath><clipPath id="29c422c8ce"><path d="M 0.046875 0.0585938 L 56.761719 0.0585938 L 56.761719 56.9375 L 0.046875 56.9375 Z M 0.046875 0.0585938 " clip-rule="nonzero"/></clipPath><clipPath id="2183fcbe87"><path d="M 28.464844 0.0585938 C 12.769531 0.0585938 0.046875 12.792969 0.046875 28.5 C 0.046875 44.207031 12.769531 56.941406 28.464844 56.941406 C 44.15625 56.941406 56.878906 44.207031 56.878906 28.5 C 56.878906 12.792969 44.15625 0.0585938 28.464844 0.0585938 Z M 28.464844 0.0585938 " clip-rule="nonzero"/></clipPath><clipPath id="1aca7f9365"><path d="M 0.046875 0.0585938 L 56.761719 0.0585938 L 56.761719 56.9375 L 0.046875 56.9375 Z M 0.046875 0.0585938 " clip-rule="nonzero"/></clipPath><clipPath id="e1f47a8f10"><path d="M 28.464844 0.0585938 C 12.769531 0.0585938 0.046875 12.792969 0.046875 28.5 C 0.046875 44.207031 12.769531 56.941406 28.464844 56.941406 C 44.15625 56.941406 56.878906 44.207031 56.878906 28.5 C 56.878906 12.792969 44.15625 0.0585938 28.464844 0.0585938 Z M 28.464844 0.0585938 " clip-rule="nonzero"/></clipPath><clipPath id="6a1664924e"><rect x="0" width="57" y="0" height="57"/></clipPath><clipPath id="f05de47599"><rect x="0" width="53" y="0" height="51"/></clipPath><clipPath id="9a992d7c33"><rect x="0" width="57" y="0" height="57"/></clipPath></defs><g clip-path="url(#b9a01dbc4a)"><g transform="matrix(1, 0, 0, 1, 0, 0.00000000000000755)"><g clip-path="url(#9a992d7c33)"><g clip-path="url(#29c422c8ce)"><g clip-path="url(#2183fcbe87)"><g transform="matrix(1, 0, 0, 1, 0, 0.00000000000000755)"><g clip-path="url(#6a1664924e)"><g clip-path="url(#1aca7f9365)"><g clip-path="url(#e1f47a8f10)"><path fill="#b20202" d="M 0.046875 0.0585938 L 56.878906 0.0585938 L 56.878906 56.894531 L 0.046875 56.894531 Z M 0.046875 0.0585938 " fill-opacity="1" fill-rule="nonzero"/></g></g></g></g></g></g><g transform="matrix(1, 0, 0, 1, 2, 1)"><g clip-path="url(#f05de47599)"><g fill="#ffffff" fill-opacity="1"><g transform="translate(2.706906, 38.948486)"><g><path d="M 10.4375 -25.9375 C 13.257812 -25.9375 15.566406 -25.40625 17.359375 -24.34375 C 19.160156 -23.289062 20.492188 -21.796875 21.359375 -19.859375 C 22.222656 -17.921875 22.65625 -15.625 22.65625 -12.96875 C 22.65625 -8.5 21.691406 -5.21875 19.765625 -3.125 C 17.847656 -1.039062 14.90625 0 10.9375 0 L 9.375 0 C 8.207031 0 7.125 -0.117188 6.125 -0.359375 C 5.125 -0.597656 4.242188 -1.03125 3.484375 -1.65625 C 2.722656 -2.28125 2.128906 -3.160156 1.703125 -4.296875 C 1.273438 -5.441406 1.0625 -6.921875 1.0625 -8.734375 C 1.0625 -10.410156 1.289062 -11.867188 1.75 -13.109375 C 2.21875 -14.347656 2.769531 -15.332031 3.40625 -16.0625 C 4.050781 -16.800781 4.640625 -17.253906 5.171875 -17.421875 L 4.984375 -18.09375 L 4.375 -18.09375 C 3.289062 -18.09375 2.429688 -18.441406 1.796875 -19.140625 C 1.171875 -19.847656 0.84375 -20.796875 0.8125 -21.984375 C 0.789062 -23.171875 1.109375 -24.125 1.765625 -24.84375 C 2.421875 -25.570312 3.289062 -25.9375 4.375 -25.9375 Z M 7.875 -9.1875 C 7.875 -8.6875 7.984375 -8.34375 8.203125 -8.15625 C 8.429688 -7.96875 8.773438 -7.875 9.234375 -7.875 L 11.15625 -7.875 C 12.363281 -7.875 13.300781 -8.132812 13.96875 -8.65625 C 14.632812 -9.175781 15.101562 -9.847656 15.375 -10.671875 C 15.644531 -11.492188 15.78125 -12.363281 15.78125 -13.28125 C 15.78125 -14.207031 15.644531 -15.097656 15.375 -15.953125 C 15.101562 -16.816406 14.632812 -17.519531 13.96875 -18.0625 C 13.300781 -18.601562 12.363281 -18.875 11.15625 -18.875 L 9.234375 -18.875 C 8.773438 -18.875 8.429688 -18.773438 8.203125 -18.578125 C 7.984375 -18.378906 7.875 -18.015625 7.875 -17.484375 Z M 7.875 -9.1875 "/></g></g></g><g fill="#ffffff" fill-opacity="1"><g transform="translate(26.255409, 38.948486)"><g><path d="M 4.921875 -0.109375 C 3.828125 -0.109375 2.921875 -0.441406 2.203125 -1.109375 C 1.492188 -1.773438 1.140625 -2.617188 1.140625 -3.640625 L 1.140625 -22.484375 C 1.140625 -23.523438 1.484375 -24.394531 2.171875 -25.09375 C 2.859375 -25.800781 3.757812 -26.15625 4.875 -26.15625 C 6.0625 -26.15625 6.988281 -25.800781 7.65625 -25.09375 C 8.320312 -24.394531 8.65625 -23.546875 8.65625 -22.546875 L 8.65625 -15.953125 L 15.28125 -15.953125 L 15.28125 -22.484375 C 15.28125 -23.523438 15.625 -24.394531 16.3125 -25.09375 C 17 -25.800781 17.925781 -26.15625 19.09375 -26.15625 C 20.257812 -26.15625 21.171875 -25.800781 21.828125 -25.09375 C 22.492188 -24.394531 22.828125 -23.546875 22.828125 -22.546875 L 22.828125 -3.640625 C 22.828125 -2.617188 22.476562 -1.773438 21.78125 -1.109375 C 21.082031 -0.441406 20.210938 -0.109375 19.171875 -0.109375 C 18.023438 -0.109375 17.085938 -0.441406 16.359375 -1.109375 C 15.640625 -1.773438 15.28125 -2.617188 15.28125 -3.640625 L 15.28125 -10.71875 L 8.65625 -10.71875 L 8.65625 -3.640625 C 8.65625 -2.617188 8.304688 -1.773438 7.609375 -1.109375 C 6.910156 -0.441406 6.015625 -0.109375 4.921875 -0.109375 Z M 4.921875 -0.109375 "/></g></g></g></g></g></g></g></g></svg>